<svg width="85" height="80" viewBox="0 0 85 80" fill="none" xmlns="http://www.w3.org/2000/svg">
<path d="M68.9771 12.8513C68.4384 12.1329 67.7613 11.5528 66.9939 11.1523C66.2265 10.7517 65.3876 10.5406 64.537 10.5339H62.2205L62.7996 6.95237C62.9081 6.10124 62.8617 5.2351 62.6629 4.4036C62.4642 3.5721 62.117 2.79158 61.6413 2.10678C60.5324 0.825715 59.0079 0.0694696 57.3943 0H11.2561C10.2321 0 9.25002 0.443927 8.52595 1.23412C7.80189 2.02432 7.39511 3.09605 7.39511 4.21356C7.39511 5.33106 7.80189 6.40279 8.52595 7.19299C9.25002 7.98318 10.2321 8.42711 11.2561 8.42711H54.6916L46.9697 56.6723C46.0982 58.0151 45.4452 59.5118 45.0393 61.0965H36.1591C35.319 58.0666 33.6079 55.4121 31.2786 53.5255C28.9494 51.6388 26.1257 50.6202 23.225 50.6202C20.3243 50.6202 17.5006 51.6388 15.1713 53.5255C12.8421 55.4121 11.1309 58.0666 10.2908 61.0965H8.1673L9.13253 54.9869C9.30188 53.8987 9.07316 52.7813 8.49556 51.8752C7.91796 50.9691 7.0376 50.3465 6.04378 50.1413C5.04661 49.9565 4.02281 50.2061 3.19251 50.8365C2.3622 51.4668 1.79171 52.4276 1.6037 53.5121L0.0593253 62.5713C-0.059289 63.4378 0.000446364 64.3223 0.234192 65.1604C0.467937 65.9986 0.869823 66.7694 1.41065 67.4169C1.90858 68.0646 2.52826 68.5879 3.22771 68.9514C3.92716 69.3149 4.69004 69.51 5.46464 69.5237H10.2908C11.1309 72.5536 12.8421 75.2081 15.1713 77.0947C17.5006 78.9814 20.3243 80 23.225 80C26.1257 80 28.9494 78.9814 31.2786 77.0947C33.6079 75.2081 35.319 72.5536 36.1591 69.5237H45.0393C45.8794 72.5536 47.5905 75.2081 49.9198 77.0947C52.249 78.9814 55.0727 80 57.9734 80C60.8741 80 63.6978 78.9814 66.0271 77.0947C68.3563 75.2081 70.0675 72.5536 70.9076 69.5237H74.7685C76.2193 69.4936 77.6142 68.9071 78.7084 67.867C79.8027 66.8269 80.5265 65.3996 80.753 63.8354L85 36.8686L68.9771 12.8513ZM23.225 71.6304C21.689 71.6304 20.2159 70.9645 19.1298 69.7793C18.0437 68.594 17.4336 66.9864 17.4336 65.3101C17.4336 63.6339 18.0437 62.0262 19.1298 60.841C20.2159 59.6557 21.689 58.9898 23.225 58.9898C24.7609 58.9898 26.234 59.6557 27.3201 60.841C28.4062 62.0262 29.0164 63.6339 29.0164 65.3101C29.0164 66.9864 28.4062 68.594 27.3201 69.7793C26.234 70.9645 24.7609 71.6304 23.225 71.6304ZM60.8691 18.961H63.3787L74.7685 35.8152H58.1665L60.8691 18.961ZM57.9734 71.6304C56.4374 71.6304 54.9644 70.9645 53.8783 69.7793C52.7922 68.594 52.182 66.9864 52.182 65.3101C52.182 63.6339 52.7922 62.0262 53.8783 60.841C54.9644 59.6557 56.4374 58.9898 57.9734 58.9898C59.5094 58.9898 60.9825 59.6557 62.0686 60.841C63.1547 62.0262 63.7648 63.6339 63.7648 65.3101C63.7648 66.9864 63.1547 68.594 62.0686 69.7793C60.9825 70.9645 59.5094 71.6304 57.9734 71.6304ZM73.4172 61.0965H70.9076C70.0769 58.0559 68.3698 55.3887 66.0397 53.491C63.7096 51.5933 60.8808 50.5664 57.9734 50.5627H55.8499L56.8151 44.0317H75.9268L73.4172 61.0965Z" fill="#ED7BAD"/>
<path d="M3.92051 21.0678H23.2252C24.2492 21.0678 25.2312 20.6239 25.9553 19.8337C26.6794 19.0435 27.0861 17.9717 27.0861 16.8542C27.0861 15.7367 26.6794 14.665 25.9553 13.8748C25.2312 13.0846 24.2492 12.6407 23.2252 12.6407H3.92051C2.89652 12.6407 1.91448 13.0846 1.19041 13.8748C0.466347 14.665 0.0595703 15.7367 0.0595703 16.8542C0.0595703 17.9717 0.466347 19.0435 1.19041 19.8337C1.91448 20.6239 2.89652 21.0678 3.92051 21.0678Z" fill="#ED7BAD"/>
<path d="M25.1559 29.4949C25.1559 28.3774 24.7491 27.3056 24.025 26.5154C23.301 25.7252 22.3189 25.2813 21.2949 25.2813H5.85117C4.82719 25.2813 3.84514 25.7252 3.12108 26.5154C2.39701 27.3056 1.99023 28.3774 1.99023 29.4949C1.99023 30.6124 2.39701 31.6841 3.12108 32.4743C3.84514 33.2645 4.82719 33.7084 5.85117 33.7084H21.2949C22.3189 33.7084 23.301 33.2645 24.025 32.4743C24.7491 31.6841 25.1559 30.6124 25.1559 29.4949Z" fill="#ED7BAD"/>
<path d="M7.77988 37.922C6.7559 37.922 5.77385 38.366 5.04979 39.1561C4.32572 39.9463 3.91895 41.0181 3.91895 42.1356C3.91895 43.2531 4.32572 44.3248 5.04979 45.115C5.77385 45.9052 6.7559 46.3491 7.77988 46.3491H19.3627C20.3867 46.3491 21.3687 45.9052 22.0928 45.115C22.8169 44.3248 23.2236 43.2531 23.2236 42.1356C23.2236 41.0181 22.8169 39.9463 22.0928 39.1561C21.3687 38.366 20.3867 37.922 19.3627 37.922H7.77988Z" fill="#ED7BAD"/>
</svg>
