<svg width="15" height="11" viewBox="0 0 15 11" fill="none" xmlns="http://www.w3.org/2000/svg">
<path fill-rule="evenodd" clip-rule="evenodd" d="M12.9545 0C14.0843 0 15 0.915784 15 2.04545V8.86364C15 9.99334 14.0843 10.9091 12.9545 10.9091H2.04545C0.915784 10.9091 0 9.99334 0 8.86364V2.04545C0 0.915784 0.915784 0 2.04545 0H12.9545ZM12.4452 1.36364H2.5549L7.07755 4.93411C7.32525 5.12973 7.67475 5.12973 7.92252 4.93411L12.4452 1.36364ZM1.36364 2.16055V8.86364C1.36364 9.2402 1.6689 9.54545 2.04545 9.54545H12.9545C13.3311 9.54545 13.6364 9.2402 13.6364 8.86364V2.16056L8.76743 6.00443C8.02432 6.59114 6.97568 6.59114 6.23257 6.00443L1.36364 2.16055Z" fill="#742E42"/>
</svg>
