<svg width="86" height="86" viewBox="0 0 86 86" fill="none" xmlns="http://www.w3.org/2000/svg">
<path d="M33.9483 30.5C29.5374 27.8127 26.6304 23.2175 26.6304 18C26.6304 9.71575 33.9592 3 43.0001 3C51.705 3 58.823 9.22615 59.3398 17.0837M26.6604 43.9335C21.9152 46.09 16.1187 46.0995 11.1877 43.4905C3.35825 39.3485 0.675649 30.1747 5.19602 23.0003C9.54849 16.0924 18.9918 13.557 26.6763 17.0757M35.7118 56.4335C35.3779 61.2775 32.4881 65.882 27.5572 68.4905C19.7277 72.633 9.71622 70.1745 5.19585 63.0005C0.843383 56.0925 3.16875 47.331 10.3366 42.992M50.2879 29.5664C50.6224 24.7225 53.5116 20.118 58.4427 17.5093C66.2723 13.3672 76.2835 15.8252 80.8042 22.9996C85.1564 29.9076 82.8313 38.669 75.6636 43.008M59.3398 42.0665C64.0848 39.91 69.8813 39.9005 74.8124 42.5095C82.642 46.6515 85.3244 55.8255 80.8042 62.9995C76.4515 69.9075 67.0084 72.443 59.324 68.9245M52.052 55.5C56.4631 58.1875 59.3698 62.7825 59.3698 68C59.3698 76.2845 52.0411 83 43.0001 83C34.2953 83 27.1773 76.774 26.6606 68.9165M59.3698 43C59.3698 51.2845 52.0406 58 43.0001 58C33.9592 58 26.6304 51.2845 26.6304 43C26.6304 34.7155 33.9592 28 43.0001 28C52.0406 28 59.3698 34.7155 59.3698 43Z" stroke="#ED7BAD" stroke-width="6" stroke-linecap="round" stroke-linejoin="round"/>
</svg>
