<svg width="81" height="81" viewBox="0 0 81 81" fill="none" xmlns="http://www.w3.org/2000/svg">
<circle cx="40.5" cy="40.5" r="38" stroke="#742E42" stroke-width="5"/>
<path fill-rule="evenodd" clip-rule="evenodd" d="M56.1553 70.0019C57.7607 67.2722 58.6997 64.1007 58.6997 60.7C58.6997 55.5974 56.6248 44.7696 53.2805 35.2933C56.7762 31.9169 60.1114 29.2487 62.4802 28.2178C63.2921 27.864 64.2523 28.3094 64.4916 29.1665C66.4666 36.1906 63.1133 64.0941 56.1553 70.0019ZM48.958 69.4285C44.393 73.9029 37.2652 73.9397 32.6124 69.8649C30.0588 67.6262 28.4079 64.3691 28.4079 60.7C28.4079 51.5957 34.6783 30.6384 39.419 25.2155C39.9945 24.5567 41.0427 24.5477 41.6212 25.2065C46.3559 30.602 52.6415 51.4188 52.6415 60.7C52.6415 64.1221 51.2238 67.2112 48.958 69.4285ZM23.9035 67.9735C19.1689 62.8434 14.9492 36.7119 17.0363 29.1754C17.2726 28.3153 18.2389 27.8639 19.0507 28.2238C21.3468 29.2364 24.5275 31.8107 27.9384 35.0803C24.9516 43.4678 20.2654 59.5159 23.9035 67.9735ZM64.2917 21.6531C60.5931 21.6531 55.7161 24.8103 50.8451 29.1992C47.9129 22.7607 44.3566 18 40.5246 18C36.726 18 33.2001 22.6659 30.286 29.016C26.5116 25.6427 19.3385 19.9548 14.7796 22.1416C5.71623 26.4848 11.5535 59.4347 15.867 68.5603C18.978 75.1422 25.4847 78.9939 31.5431 79H46.3498V78.9747C55.089 79.1638 61.4928 74.6176 64.3584 68.5603C68.9173 58.9193 76.7266 21.6531 64.2917 21.6531Z" fill="#742E42"/>
</svg>
