<svg width="40" height="40" viewBox="0 0 40 40" fill="none" xmlns="http://www.w3.org/2000/svg">
<circle cx="20" cy="20" r="19" stroke="white" stroke-width="2"/>
<path fill-rule="evenodd" clip-rule="evenodd" d="M27.6993 34.5747C28.4889 33.2322 28.9507 31.6725 28.9507 30C28.9507 27.4905 27.9302 22.1654 26.2855 17.5049C28.0047 15.8444 29.645 14.5321 30.8099 14.0251C31.2092 13.8511 31.6814 14.0702 31.7991 14.4917C32.7705 17.9462 31.1213 31.6692 27.6993 34.5747ZM24.1597 34.2927C21.9146 36.4932 18.4091 36.5113 16.1208 34.5073C14.865 33.4063 14.0531 31.8045 14.0531 30C14.0531 25.5225 17.1369 15.2156 19.4684 12.5486C19.7514 12.2246 20.2669 12.2202 20.5514 12.5442C22.8799 15.1977 25.9712 25.4355 25.9712 30C25.9712 31.683 25.274 33.2022 24.1597 34.2927ZM11.8378 33.5771C9.50928 31.0541 7.43403 18.2026 8.46048 14.4961C8.57668 14.0731 9.05191 13.8511 9.45117 14.0281C10.5804 14.5261 12.1447 15.7921 13.8221 17.4001C12.3532 21.5251 10.0486 29.4176 11.8378 33.5771ZM31.7008 10.7966C29.8818 10.7966 27.4833 12.3493 25.0878 14.5078C23.6457 11.3413 21.8967 9 20.0121 9C18.1439 9 16.4099 11.2947 14.9767 14.4177C13.1205 12.7587 9.5927 9.96137 7.35061 11.0369C2.89323 13.1729 5.76401 29.3777 7.88543 33.8657C9.41542 37.1027 12.6154 38.997 15.595 39H22.8769V38.9875C27.1749 39.0805 30.3243 36.8447 31.7336 33.8657C33.9757 29.1242 37.8163 10.7966 31.7008 10.7966Z" fill="white"/>
</svg>
