<svg width="15" height="19" viewBox="0 0 15 19" fill="none" xmlns="http://www.w3.org/2000/svg">
<path fill-rule="evenodd" clip-rule="evenodd" d="M0 7.62283C0 3.42366 3.34715 0 7.5 0C11.6529 0 15 3.42366 15 7.62283C15 9.65006 14.4223 11.8268 13.4009 13.7073C12.3809 15.5855 10.8905 17.2176 9.02614 18.0891C8.05766 18.5417 6.94234 18.5417 5.97386 18.0891C4.10946 17.2176 2.6191 15.5855 1.59905 13.7073C0.57774 11.8268 0 9.65006 0 7.62283ZM7.5 1.28571C4.07865 1.28571 1.28571 4.11213 1.28571 7.62283C1.28571 9.42034 1.80225 11.3875 2.72889 13.0937C3.65678 14.8022 4.96802 16.1997 6.51823 16.9243C7.1418 17.2157 7.8582 17.2157 8.48177 16.9243C10.032 16.1997 11.3433 14.8022 12.2711 13.0937C13.1978 11.3875 13.7143 9.42034 13.7143 7.62283C13.7143 4.11213 10.9214 1.28571 7.5 1.28571ZM7.5 5.57143C6.43491 5.57143 5.57143 6.43488 5.57143 7.5C5.57143 8.56509 6.43491 9.42857 7.5 9.42857C8.56509 9.42857 9.42857 8.56509 9.42857 7.5C9.42857 6.43488 8.56509 5.57143 7.5 5.57143ZM4.28571 7.5C4.28571 5.7248 5.7248 4.28571 7.5 4.28571C9.27523 4.28571 10.7143 5.7248 10.7143 7.5C10.7143 9.27523 9.27523 10.7143 7.5 10.7143C5.7248 10.7143 4.28571 9.27523 4.28571 7.5Z" fill="#742E42"/>
</svg>
