<svg width="22" height="22" viewBox="0 0 22 22" fill="none" xmlns="http://www.w3.org/2000/svg">
<path fill-rule="evenodd" clip-rule="evenodd" d="M3.78118 19.8H18.218C18.995 19.8 19.5688 19.0333 19.2758 18.3282C17.916 15.0678 14.7214 13.2 11.0002 13.2C7.27782 13.2 4.08323 15.0678 2.72343 18.3282C2.43036 19.0333 3.00415 19.8 3.78118 19.8ZM15.4917 6.59999C15.4917 4.17339 13.4761 2.19998 11.0002 2.19998C8.52309 2.19998 6.50865 4.17339 6.50865 6.59999C6.50865 9.02659 8.52309 11 11.0002 11C13.4761 11 15.4917 9.02659 15.4917 6.59999ZM0.0487404 19.3996C0.86507 15.7047 3.41849 12.9778 6.77926 11.7403C4.99838 10.3356 3.95972 8.06403 4.3415 5.57693C4.78391 2.69163 7.23402 0.382775 10.1917 0.0461746C14.2745 -0.419126 17.7374 2.69389 17.7374 6.59999C17.7374 8.67899 16.7538 10.5314 15.2199 11.7403C18.5818 12.9778 21.1341 15.7047 21.9516 19.3996C22.248 20.7427 21.1431 22 19.7406 22H2.25969C0.856091 22 -0.248821 20.7427 0.0487404 19.3996Z" fill="#742E42"/>
</svg>
