<svg width="20" height="20" viewBox="0 0 20 20" fill="none" xmlns="http://www.w3.org/2000/svg">
<path d="M4.21656 14.3911L0 18.6076L1.39236 20L5.60892 15.7834C7.12504 16.9964 9.04779 17.722 11.139 17.722C16.0303 17.722 20 13.7523 20 8.86102C20 3.96973 16.0303 0 11.139 0C6.2477 0 2.27797 3.96973 2.27797 8.86102C2.27797 10.9522 3.00359 12.875 4.21656 14.3911ZM6.19188 13.6605C4.98796 12.4198 4.24708 10.7273 4.24708 8.86102C4.24708 5.05324 7.33121 1.96911 11.139 1.96911C14.9468 1.96911 18.0309 5.05324 18.0309 8.86102C18.0309 12.6688 14.9468 15.7529 11.139 15.7529C9.27266 15.7529 7.5802 15.012 6.33947 13.8081L6.19188 13.6605Z" fill="black"/>
</svg>
